<mxfile host="65bd71144e">
    <diagram id="SjHgbiXR0ZYgxcwcT_hP" name="Page-1">
        <mxGraphModel dx="1477" dy="1685" grid="1" gridSize="10" guides="1" tooltips="1" connect="1" arrows="1" fold="1" page="1" pageScale="1" pageWidth="827" pageHeight="1169" math="0" shadow="0">
            <root>
                <mxCell id="0"/>
                <mxCell id="1" parent="0"/>
                <mxCell id="l3xsxJY1Bz7nLjrfLhlN-1" value="" style="whiteSpace=wrap;html=1;aspect=fixed;fillColor=#647687;strokeColor=#314354;fontColor=#ffffff;" parent="1" vertex="1">
                    <mxGeometry x="40" y="-310" width="1430" height="1430" as="geometry"/>
                </mxCell>
                <mxCell id="ms9LaY1XJzBupYHDZiQo-24" style="edgeStyle=orthogonalEdgeStyle;rounded=0;orthogonalLoop=1;jettySize=auto;html=1;entryX=0.5;entryY=0;entryDx=0;entryDy=0;" parent="1" source="l3xsxJY1Bz7nLjrfLhlN-2" target="ms9LaY1XJzBupYHDZiQo-21" edge="1">
                    <mxGeometry relative="1" as="geometry"/>
                </mxCell>
                <mxCell id="l3xsxJY1Bz7nLjrfLhlN-2" value="Titulo" style="rounded=0;whiteSpace=wrap;html=1;fillColor=#1ba1e2;strokeColor=#006EAF;fontColor=#ffffff;" parent="1" vertex="1">
                    <mxGeometry x="40" y="-310" width="1430" height="80" as="geometry"/>
                </mxCell>
                <mxCell id="l3xsxJY1Bz7nLjrfLhlN-4" value="20px de margen por los 4 lados" style="text;html=1;strokeColor=none;fillColor=none;align=center;verticalAlign=middle;whiteSpace=wrap;rounded=0;" parent="1" vertex="1">
                    <mxGeometry x="-60" y="-285" width="60" height="30" as="geometry"/>
                </mxCell>
                <mxCell id="l3xsxJY1Bz7nLjrfLhlN-5" value="" style="endArrow=classic;html=1;rounded=0;exitX=1;exitY=0.5;exitDx=0;exitDy=0;" parent="1" source="l3xsxJY1Bz7nLjrfLhlN-4" target="l3xsxJY1Bz7nLjrfLhlN-2" edge="1">
                    <mxGeometry width="50" height="50" relative="1" as="geometry">
                        <mxPoint x="-10" y="120" as="sourcePoint"/>
                        <mxPoint x="40" y="70" as="targetPoint"/>
                    </mxGeometry>
                </mxCell>
                <mxCell id="l3xsxJY1Bz7nLjrfLhlN-7" value="" style="endArrow=classic;startArrow=classic;html=1;rounded=0;" parent="1" edge="1">
                    <mxGeometry width="50" height="50" relative="1" as="geometry">
                        <mxPoint x="30" y="-360" as="sourcePoint"/>
                        <mxPoint x="1470" y="-360" as="targetPoint"/>
                    </mxGeometry>
                </mxCell>
                <mxCell id="l3xsxJY1Bz7nLjrfLhlN-9" value="Información sobre el contexto social" style="rounded=0;whiteSpace=wrap;html=1;fillColor=#a20025;fontColor=#ffffff;strokeColor=#6F0000;" parent="1" vertex="1">
                    <mxGeometry x="80" y="150" width="1350" height="250" as="geometry"/>
                </mxCell>
                <mxCell id="l3xsxJY1Bz7nLjrfLhlN-10" value="1360px" style="text;html=1;strokeColor=none;fillColor=none;align=center;verticalAlign=middle;whiteSpace=wrap;rounded=0;" parent="1" vertex="1">
                    <mxGeometry x="760" y="-400" width="60" height="30" as="geometry"/>
                </mxCell>
                <mxCell id="l3xsxJY1Bz7nLjrfLhlN-12" value="Vídeo sobre el contexto social" style="rounded=0;whiteSpace=wrap;html=1;fillColor=#f0a30a;strokeColor=#BD7000;fontColor=#000000;" parent="1" vertex="1">
                    <mxGeometry x="82" y="740" width="668" height="260" as="geometry"/>
                </mxCell>
                <mxCell id="l3xsxJY1Bz7nLjrfLhlN-13" value="Información del centro" style="rounded=0;whiteSpace=wrap;html=1;fillColor=#fa6800;strokeColor=#C73500;fontColor=#000000;" parent="1" vertex="1">
                    <mxGeometry x="40" y="1040" width="1430" height="80" as="geometry"/>
                </mxCell>
                <mxCell id="l3xsxJY1Bz7nLjrfLhlN-14" value="Más información sobre el contexto social a una página externa" style="rounded=0;whiteSpace=wrap;html=1;fillColor=#e3c800;strokeColor=#B09500;fontColor=#000000;" parent="1" vertex="1">
                    <mxGeometry x="840" y="740" width="590" height="260" as="geometry"/>
                </mxCell>
                <mxCell id="l3xsxJY1Bz7nLjrfLhlN-17" value="" style="endArrow=classic;html=1;rounded=0;exitX=-0.001;exitY=0.649;exitDx=0;exitDy=0;exitPerimeter=0;" parent="1" source="l3xsxJY1Bz7nLjrfLhlN-1" target="ms9LaY1XJzBupYHDZiQo-7" edge="1">
                    <mxGeometry width="50" height="50" relative="1" as="geometry">
                        <mxPoint x="40" y="570" as="sourcePoint"/>
                        <mxPoint x="90" y="520" as="targetPoint"/>
                    </mxGeometry>
                </mxCell>
                <mxCell id="l3xsxJY1Bz7nLjrfLhlN-19" value="" style="endArrow=classic;html=1;rounded=0;entryX=-0.006;entryY=0.385;entryDx=0;entryDy=0;entryPerimeter=0;exitX=1.004;exitY=0.377;exitDx=0;exitDy=0;exitPerimeter=0;" parent="1" source="l3xsxJY1Bz7nLjrfLhlN-12" target="l3xsxJY1Bz7nLjrfLhlN-14" edge="1">
                    <mxGeometry width="50" height="50" relative="1" as="geometry">
                        <mxPoint x="400" y="530" as="sourcePoint"/>
                        <mxPoint x="450" y="480" as="targetPoint"/>
                    </mxGeometry>
                </mxCell>
                <mxCell id="l3xsxJY1Bz7nLjrfLhlN-21" value="" style="endArrow=classic;html=1;rounded=0;entryX=1;entryY=0.75;entryDx=0;entryDy=0;exitX=1.003;exitY=0.096;exitDx=0;exitDy=0;exitPerimeter=0;" parent="1" source="l3xsxJY1Bz7nLjrfLhlN-14" target="l3xsxJY1Bz7nLjrfLhlN-1" edge="1">
                    <mxGeometry width="50" height="50" relative="1" as="geometry">
                        <mxPoint x="770" y="540" as="sourcePoint"/>
                        <mxPoint x="820" y="490" as="targetPoint"/>
                    </mxGeometry>
                </mxCell>
                <mxCell id="l3xsxJY1Bz7nLjrfLhlN-22" value="20px" style="text;html=1;strokeColor=none;fillColor=none;align=center;verticalAlign=middle;whiteSpace=wrap;rounded=0;" parent="1" vertex="1">
                    <mxGeometry x="30" y="620" width="60" height="30" as="geometry"/>
                </mxCell>
                <mxCell id="l3xsxJY1Bz7nLjrfLhlN-23" value="20px" style="text;html=1;strokeColor=none;fillColor=none;align=center;verticalAlign=middle;whiteSpace=wrap;rounded=0;" parent="1" vertex="1">
                    <mxGeometry x="767" y="800" width="60" height="30" as="geometry"/>
                </mxCell>
                <mxCell id="l3xsxJY1Bz7nLjrfLhlN-25" value="20px" style="text;html=1;strokeColor=none;fillColor=none;align=center;verticalAlign=middle;whiteSpace=wrap;rounded=0;" parent="1" vertex="1">
                    <mxGeometry x="1420" y="730" width="60" height="30" as="geometry"/>
                </mxCell>
                <mxCell id="l3xsxJY1Bz7nLjrfLhlN-26" value="" style="endArrow=classic;html=1;rounded=0;exitX=0.5;exitY=1;exitDx=0;exitDy=0;entryX=0.264;entryY=0.013;entryDx=0;entryDy=0;entryPerimeter=0;" parent="1" source="l3xsxJY1Bz7nLjrfLhlN-12" target="l3xsxJY1Bz7nLjrfLhlN-13" edge="1">
                    <mxGeometry width="50" height="50" relative="1" as="geometry">
                        <mxPoint x="400" y="690" as="sourcePoint"/>
                        <mxPoint x="450" y="640" as="targetPoint"/>
                    </mxGeometry>
                </mxCell>
                <mxCell id="l3xsxJY1Bz7nLjrfLhlN-29" value="20px" style="text;html=1;strokeColor=none;fillColor=none;align=center;verticalAlign=middle;whiteSpace=wrap;rounded=0;" parent="1" vertex="1">
                    <mxGeometry x="680" y="100" width="60" height="30" as="geometry"/>
                </mxCell>
                <mxCell id="l3xsxJY1Bz7nLjrfLhlN-30" value="20px" style="text;html=1;strokeColor=none;fillColor=none;align=center;verticalAlign=middle;whiteSpace=wrap;rounded=0;" parent="1" vertex="1">
                    <mxGeometry x="450" y="710" width="60" height="30" as="geometry"/>
                </mxCell>
                <mxCell id="l3xsxJY1Bz7nLjrfLhlN-31" value="20px" style="text;html=1;strokeColor=none;fillColor=none;align=center;verticalAlign=middle;whiteSpace=wrap;rounded=0;" parent="1" vertex="1">
                    <mxGeometry x="350" y="1010" width="60" height="30" as="geometry"/>
                </mxCell>
                <mxCell id="ms9LaY1XJzBupYHDZiQo-1" value="" style="endArrow=classic;startArrow=classic;html=1;rounded=0;entryX=1;entryY=0.25;entryDx=0;entryDy=0;exitX=0;exitY=0.25;exitDx=0;exitDy=0;" parent="1" source="l3xsxJY1Bz7nLjrfLhlN-12" target="l3xsxJY1Bz7nLjrfLhlN-12" edge="1">
                    <mxGeometry width="50" height="50" relative="1" as="geometry">
                        <mxPoint x="70" y="510" as="sourcePoint"/>
                        <mxPoint x="120" y="460" as="targetPoint"/>
                    </mxGeometry>
                </mxCell>
                <mxCell id="ms9LaY1XJzBupYHDZiQo-2" value="" style="endArrow=classic;startArrow=classic;html=1;rounded=0;entryX=1;entryY=0.25;entryDx=0;entryDy=0;exitX=0;exitY=0.25;exitDx=0;exitDy=0;" parent="1" source="l3xsxJY1Bz7nLjrfLhlN-14" target="l3xsxJY1Bz7nLjrfLhlN-14" edge="1">
                    <mxGeometry width="50" height="50" relative="1" as="geometry">
                        <mxPoint x="430" y="499" as="sourcePoint"/>
                        <mxPoint x="760" y="499" as="targetPoint"/>
                    </mxGeometry>
                </mxCell>
                <mxCell id="ms9LaY1XJzBupYHDZiQo-3" value="690px" style="text;html=1;strokeColor=none;fillColor=none;align=center;verticalAlign=middle;whiteSpace=wrap;rounded=0;" parent="1" vertex="1">
                    <mxGeometry x="250" y="750" width="60" height="30" as="geometry"/>
                </mxCell>
                <mxCell id="ms9LaY1XJzBupYHDZiQo-4" value="690px" style="text;html=1;strokeColor=none;fillColor=none;align=center;verticalAlign=middle;whiteSpace=wrap;rounded=0;" parent="1" vertex="1">
                    <mxGeometry x="1100" y="760" width="60" height="30" as="geometry"/>
                </mxCell>
                <mxCell id="ms9LaY1XJzBupYHDZiQo-7" value="Imagen sobre el contexto social" style="rounded=0;whiteSpace=wrap;html=1;fillColor=#6a00ff;strokeColor=#3700CC;fontColor=#ffffff;" parent="1" vertex="1">
                    <mxGeometry x="80" y="450" width="1350" height="250" as="geometry"/>
                </mxCell>
                <mxCell id="ms9LaY1XJzBupYHDZiQo-8" value="" style="endArrow=classic;html=1;rounded=0;exitX=0.668;exitY=0;exitDx=0;exitDy=0;entryX=0.333;entryY=1.022;entryDx=0;entryDy=0;entryPerimeter=0;exitPerimeter=0;" parent="1" source="l3xsxJY1Bz7nLjrfLhlN-12" target="ms9LaY1XJzBupYHDZiQo-7" edge="1">
                    <mxGeometry width="50" height="50" relative="1" as="geometry">
                        <mxPoint x="630" y="660" as="sourcePoint"/>
                        <mxPoint x="680" y="610" as="targetPoint"/>
                    </mxGeometry>
                </mxCell>
                <mxCell id="ms9LaY1XJzBupYHDZiQo-10" value="" style="endArrow=classic;html=1;rounded=0;exitX=0.5;exitY=1;exitDx=0;exitDy=0;" parent="1" source="l3xsxJY1Bz7nLjrfLhlN-9" target="ms9LaY1XJzBupYHDZiQo-7" edge="1">
                    <mxGeometry width="50" height="50" relative="1" as="geometry">
                        <mxPoint x="630" y="660" as="sourcePoint"/>
                        <mxPoint x="680" y="610" as="targetPoint"/>
                    </mxGeometry>
                </mxCell>
                <mxCell id="ms9LaY1XJzBupYHDZiQo-11" value="20px" style="text;html=1;strokeColor=none;fillColor=none;align=center;verticalAlign=middle;whiteSpace=wrap;rounded=0;" parent="1" vertex="1">
                    <mxGeometry x="680" y="410" width="60" height="30" as="geometry"/>
                </mxCell>
                <mxCell id="ms9LaY1XJzBupYHDZiQo-12" value="20px de margen por los 4 lados" style="text;html=1;strokeColor=none;fillColor=none;align=center;verticalAlign=middle;whiteSpace=wrap;rounded=0;" parent="1" vertex="1">
                    <mxGeometry x="-100" y="1065" width="60" height="30" as="geometry"/>
                </mxCell>
                <mxCell id="ms9LaY1XJzBupYHDZiQo-13" value="" style="endArrow=classic;html=1;rounded=0;exitX=1;exitY=0.5;exitDx=0;exitDy=0;" parent="1" source="ms9LaY1XJzBupYHDZiQo-12" edge="1">
                    <mxGeometry width="50" height="50" relative="1" as="geometry">
                        <mxPoint x="-10" y="1120" as="sourcePoint"/>
                        <mxPoint x="40" y="1080" as="targetPoint"/>
                    </mxGeometry>
                </mxCell>
                <mxCell id="ms9LaY1XJzBupYHDZiQo-14" value="" style="endArrow=classic;startArrow=classic;html=1;rounded=0;exitX=0;exitY=0.25;exitDx=0;exitDy=0;entryX=1;entryY=0.25;entryDx=0;entryDy=0;" parent="1" source="ms9LaY1XJzBupYHDZiQo-7" target="ms9LaY1XJzBupYHDZiQo-7" edge="1">
                    <mxGeometry width="50" height="50" relative="1" as="geometry">
                        <mxPoint x="670" y="490" as="sourcePoint"/>
                        <mxPoint x="720" y="440" as="targetPoint"/>
                    </mxGeometry>
                </mxCell>
                <mxCell id="ms9LaY1XJzBupYHDZiQo-15" value="" style="endArrow=classic;startArrow=classic;html=1;rounded=0;exitX=0;exitY=0.25;exitDx=0;exitDy=0;entryX=1;entryY=0.25;entryDx=0;entryDy=0;" parent="1" target="l3xsxJY1Bz7nLjrfLhlN-9" edge="1">
                    <mxGeometry width="50" height="50" relative="1" as="geometry">
                        <mxPoint x="80" y="210" as="sourcePoint"/>
                        <mxPoint x="1080" y="210" as="targetPoint"/>
                    </mxGeometry>
                </mxCell>
                <mxCell id="ms9LaY1XJzBupYHDZiQo-17" value="1400px" style="text;html=1;strokeColor=none;fillColor=none;align=center;verticalAlign=middle;whiteSpace=wrap;rounded=0;" parent="1" vertex="1">
                    <mxGeometry x="560" y="180" width="60" height="30" as="geometry"/>
                </mxCell>
                <mxCell id="ms9LaY1XJzBupYHDZiQo-18" value="1400px" style="text;html=1;strokeColor=none;fillColor=none;align=center;verticalAlign=middle;whiteSpace=wrap;rounded=0;" parent="1" vertex="1">
                    <mxGeometry x="570" y="480" width="60" height="30" as="geometry"/>
                </mxCell>
                <mxCell id="ms9LaY1XJzBupYHDZiQo-23" style="edgeStyle=orthogonalEdgeStyle;rounded=0;orthogonalLoop=1;jettySize=auto;html=1;" parent="1" source="ms9LaY1XJzBupYHDZiQo-21" target="l3xsxJY1Bz7nLjrfLhlN-9" edge="1">
                    <mxGeometry relative="1" as="geometry"/>
                </mxCell>
                <mxCell id="ms9LaY1XJzBupYHDZiQo-21" value="Mensaje de felicitación" style="rounded=0;whiteSpace=wrap;html=1;fillColor=#60a917;fontColor=#ffffff;strokeColor=#2D7600;" parent="1" vertex="1">
                    <mxGeometry x="80" y="-180" width="1350" height="270" as="geometry"/>
                </mxCell>
                <mxCell id="ms9LaY1XJzBupYHDZiQo-25" value="20px" style="text;html=1;strokeColor=none;fillColor=none;align=center;verticalAlign=middle;whiteSpace=wrap;rounded=0;" parent="1" vertex="1">
                    <mxGeometry x="680" y="-220" width="60" height="30" as="geometry"/>
                </mxCell>
                <mxCell id="2" value="20px de margen por los 4 lados" style="text;html=1;strokeColor=none;fillColor=none;align=center;verticalAlign=middle;whiteSpace=wrap;rounded=0;" vertex="1" parent="1">
                    <mxGeometry x="-20" y="-60" width="60" height="30" as="geometry"/>
                </mxCell>
                <mxCell id="3" value="" style="endArrow=classic;html=1;rounded=0;exitX=1;exitY=0.5;exitDx=0;exitDy=0;" edge="1" parent="1" source="2">
                    <mxGeometry width="50" height="50" relative="1" as="geometry">
                        <mxPoint x="30" y="345" as="sourcePoint"/>
                        <mxPoint x="80" y="-45" as="targetPoint"/>
                    </mxGeometry>
                </mxCell>
                <mxCell id="4" value="20px de margen por los 4 lados" style="text;html=1;strokeColor=none;fillColor=none;align=center;verticalAlign=middle;whiteSpace=wrap;rounded=0;" vertex="1" parent="1">
                    <mxGeometry x="-20" y="270" width="60" height="30" as="geometry"/>
                </mxCell>
                <mxCell id="5" value="" style="endArrow=classic;html=1;rounded=0;exitX=1;exitY=0.5;exitDx=0;exitDy=0;" edge="1" parent="1" source="4">
                    <mxGeometry width="50" height="50" relative="1" as="geometry">
                        <mxPoint x="30" y="675" as="sourcePoint"/>
                        <mxPoint x="80" y="285" as="targetPoint"/>
                    </mxGeometry>
                </mxCell>
            </root>
        </mxGraphModel>
    </diagram>
</mxfile>